<?xml version="1.0" ?><!DOCTYPE svg  PUBLIC '-//W3C//DTD SVG 1.0//EN'  'http://www.w3.org/TR/2001/REC-SVG-20010904/DTD/svg10.dtd'><svg height="32" style="overflow:visible;enable-background:new 0 0 15.9 32" viewBox="0 0 15.9 32" width="15.9" xml:space="preserve" xmlns="http://www.w3.org/2000/svg" xmlns:xlink="http://www.w3.org/1999/xlink"><g><g id="_x24_-sign_1_"><g id="_x24_-sign"><rect height="6" id="Top" style="fill:#34B67A;" width="4" x="5.7"/><rect height="6" id="Bottom" style="fill:#34B67A;" width="4" x="5.7" y="26"/><polygon id="Shadow" points="5.7,27 9.7,31 9.7,27 " style="fill:#0BA55F;"/><path d="M1.1,22.3c1.4,0.7,3.6,1.4,5.8,1.4c2.4,0,3.7-1,3.7-2.6        c0-1.4-1.1-2.3-3.9-3.2c-3.9-1.4-6.4-3.5-6.4-6.9c0-4,3.3-7,8.8-7c2.7,0,4.6,0.5,5.9,1.2l-1.2,4.2C12.9,8.9,11.2,8.3,9,8.3        c-2.3,0-3.4,1.1-3.4,2.2c0,1.5,1.3,2.1,4.3,3.3c4.1,1.5,6,3.7,6,7c0,3.9-3,7.2-9.4,7.2c-2.7,0-5.3-0.7-6.6-1.4L1.1,22.3z" id="S" style="fill:#34B67A;"/></g></g></g></svg>