<?xml version="1.0" ?><!DOCTYPE svg  PUBLIC '-//W3C//DTD SVG 1.0//EN'  'http://www.w3.org/TR/2001/REC-SVG-20010904/DTD/svg10.dtd'><svg height="32" style="overflow:visible;enable-background:new 0 0 32 32" viewBox="0 0 32 32" width="32" xml:space="preserve" xmlns="http://www.w3.org/2000/svg" xmlns:xlink="http://www.w3.org/1999/xlink"><g><g id="Magnifying_Glass_x28_Zoom_Out_x29_"><g id="Magnifying_Glass_x28_Zoom_Out_x29__1_"><g id="Handle"><path d="M17.1,19.4l2.6,2.6v1.4l8.3,8.3c0.5,0.5,1.2,0.5,1.6,0l2-2         c0.5-0.5,0.5-1.2,0-1.6l-8.3-8.3H22l-2.6-2.6L17.1,19.4z" id="Holder" style="fill:#ED8A06;"/><rect height="3.2" id="Bar" style="fill:#F39C12;" transform="matrix(-0.707 -0.7072 0.7072 -0.707 19.6162 47.3727)" width="3.5" x="17.9" y="18"/><polygon id="Shadow" points="20.6,21.1 20.6,18.3 19.5,17.2 17.2,19.5 19.7,22 " style="fill:#E67E22;"/></g><circle cx="11" cy="11" id="Circle_2_" r="11" style="fill:#ED8A06;"/><circle cx="11" cy="11" id="Circle" r="8" style="fill:#E6E6E6;"/><path d="M11,3C8.8,3,6.8,3.9,5.3,5.3l11.3,11.3c1.4-1.4,2.3-3.4,2.3-5.7        C19,6.6,15.4,3,11,3z" id="Overlay" style="fill:#D8D8D8;"/><rect height="2" id="Minus" style="fill:#F39C12;" width="8" x="7" y="10"/><polygon id="Minus_overlay" points="12,12 15,12 15,10 10,10 " style="fill:#E88D15;"/></g></g></g></svg>