<?xml version="1.0" ?><!DOCTYPE svg  PUBLIC '-//W3C//DTD SVG 1.1//EN'  'http://www.w3.org/Graphics/SVG/1.1/DTD/svg11.dtd'><svg enable-background="new 0 0 106 106" id="Layer_1" version="1.1" viewBox="0 0 106 106" xml:space="preserve" xmlns="http://www.w3.org/2000/svg" xmlns:xlink="http://www.w3.org/1999/xlink"><circle cx="53" cy="53" fill="#2DA4A8" r="50"/><path d="M68,29.5L54.7,17c-0.9-0.8-2.3-0.8-3.2,0L38,29.5c-0.5,0.4-1,1-1,1.7v56.2c0,1.3,1.6,2.6,2.9,2.6h26.3  c1.3,0,2.9-1.4,2.9-2.6V31.2C69,30.5,68.4,30,68,29.5z M53,26.8c-1.5,0-2.8-1.2-2.8-2.8c0-1.5,1.2-2.8,2.8-2.8s2.8,1.2,2.8,2.8  C55.8,25.6,54.5,26.8,53,26.8z" fill="#E96044"/><path d="M61.7,85.7H44.3c-1.6,0-2.9-1.3-2.9-2.9V42.7c0-1.6,1.3-2.9,2.9-2.9h17.4c1.6,0,2.9,1.3,2.9,2.9v40.1  C64.6,84.4,63.3,85.7,61.7,85.7z" fill="#F2F2F2"/><path d="M47.2,80.8H46c-0.5,0-0.9-0.4-0.9-0.9V45.5c0-0.5,0.4-0.9,0.9-0.9h1.2c0.5,0,0.9,0.4,0.9,0.9v34.4  C48.1,80.4,47.7,80.8,47.2,80.8z" fill="#CCCCCC"/><path d="M52.1,80.8H51c-0.5,0-0.9-0.4-0.9-0.9V45.5c0-0.5,0.4-0.9,0.9-0.9h1.2c0.5,0,0.9,0.4,0.9,0.9v34.4  C53,80.4,52.6,80.8,52.1,80.8z" fill="#CCCCCC"/><path d="M57.1,80.8H56c-0.5,0-0.9-0.4-0.9-0.9V45.5c0-0.5,0.4-0.9,0.9-0.9h1.2c0.5,0,0.9,0.4,0.9,0.9v34.4  C58,80.4,57.6,80.8,57.1,80.8z" fill="#CCCCCC"/></svg>